<?xml version="1.0" encoding="utf-8"?>
<!-- Generator: Adobe Illustrator 26.0.3, SVG Export Plug-In . SVG Version: 6.00 Build 0)  -->
<svg version="1.1" id="Calque_1" xmlns="http://www.w3.org/2000/svg" xmlns:xlink="http://www.w3.org/1999/xlink" x="0px" y="0px"
	 viewBox="0 0 1137.2 282.2" style="enable-background:new 0 0 1137.2 282.2;" xml:space="preserve" width="100">
<style type="text/css">
	.st0{fill:#FFFFFF;}
	.st1{fill:#168EBD;}
</style>
<g>
	<polygon class="st0" points="117.2,11.8 25.6,51.6 8,110.6 30.3,141.1 62.6,148.7 36.2,243.1 45.6,271.3 99.6,271.3 128.9,230.6
		128.9,271.3 172.3,271.3 195.8,271.3 204,250.1 229.9,271.3 253.3,271.3 283.9,271.3 313.2,257 326.1,246.6 347.3,271.3
		390.7,271.3 414.2,257 443.5,271.3 468.2,271.3 496.4,257 506.9,257 528,271.3 559.7,271.3 591.4,261.2 610.2,241.9 622,218.4
		653.7,245.4 711.2,271.3 757,271.3 804.3,261.3 861.4,271.3 907.2,271.3 943.6,257 989.4,271.3 1095,271.3 1109.1,239.6
		1102.1,213.8 1019.9,212.6 1024.6,184.4 1085.7,183.2 1098.6,152.8 1096.2,129.2 1031.7,126.9 1037,97.5 1109.1,102.2 1130.1,84.6
		1130.1,51.6 1083.3,44.5 987,36.8 968.3,56.5 933,36.8 885.7,44.5 847.3,51.6 838.8,68.8 784,36.8 727.6,36.8 685.3,60 653.7,78.8
		649.1,98.7 620.8,99.9 596.1,90.5 568.6,94 541.8,114.6 522.2,114.6 508.1,141.6 489.3,169.1 489.3,123.4 506.9,68.2 510.4,29.5
		454.1,36.8 434.1,36.8 410.6,30.6 362.5,36.8 361.4,72.9 348.4,102.2 343.7,126.9 332,96.4 306.9,89.3 276.8,92.8 251.9,112.9
		229.9,118.1 220.5,124.5 228.1,61.4 246.3,36.8 248.6,11.8 210.9,11.8 177,31.8 157.1,28.3 	"/>
	<path class="st1" d="M304.7,141.6c1.4-4.5,2.1-9.3,2.2-14c0-1,0-1.9-0.1-2.7c0-0.3-0.1-0.5-0.1-0.8c0-0.6-0.1-1.1-0.2-1.7
		c0-0.3-0.1-0.6-0.2-0.8c-0.1-0.5-0.2-0.9-0.3-1.3s-0.2-0.5-0.3-0.8c-0.1-0.4-0.3-0.7-0.4-1.1c-0.1-0.2-0.3-0.5-0.4-0.7
		c-0.2-0.3-0.4-0.6-0.6-0.8c-0.2-0.2-0.4-0.4-0.5-0.5c-0.2-0.2-0.5-0.4-0.7-0.6c-0.2-0.1-0.5-0.3-0.7-0.4c-0.3-0.1-0.6-0.3-0.9-0.4
		s-0.6-0.1-0.8-0.2c-0.2-0.1-0.4-0.1-0.6-0.1c-0.3,0-0.6,0-1,0l0,0c-3.2,0.1-6.3,1.2-8.8,3.2c-2.1,1.5-4,3.3-5.7,5.3
		c-7.4,8.5-14.1,22.6-19,37.7c-1.8,5.7-3.4,11.6-4.7,17.4l0,0c9.3-0.7,18.1-4.1,25.3-9.9C295,161.5,301.4,152.2,304.7,141.6z"/>
	<path class="st1" d="M1118.4,29.2h-0.4c-0.6,0-1.2-0.1-1.7-0.1l-135.8-2.3c-8.1-0.2-15.6,4.3-19.2,11.6c-2-1.2-4-2.3-6.1-3.3
		c-6.2-3-12.6-5.5-19.2-7.3c-7-1.9-14.2-3.2-21.5-3.8c-7.5-0.6-15.1-0.6-22.6,0c-13.4,0.9-26.5,4.2-38.7,9.7
		c-9.1,4.2-17.5,9.6-25,16.2c-1.8-1.5-3.5-2.8-5.3-4.2c-6.4-4.6-13.3-8.5-20.5-11.6c-7.6-3.2-15.5-5.7-23.6-7.4
		c-8.9-1.9-18-2.9-27.1-3c-18-0.4-35.9,2.5-52.8,8.6c-30.1,10.9-55.2,32.3-70.6,60.3c-10.6-9.7-23.2-13-32.8-14.1
		c-2.7-0.3-5.4-0.4-8.1-0.4c-34.7-0.2-63.5,16.4-83.5,48l18.4-84.4c2.5-11.3-4.6-22.5-16-25c-2.4-0.5-4.9-0.6-7.3-0.3l-46.7,6.1
		c-5.9,0.8-11.1,4-14.5,8.8c-0.9-3.2-2.5-6.2-4.8-8.7c-4.7-5-11.4-7.4-18.2-6.6L368,22c-8.8,1.2-15.9,7.7-17.8,16.4l-11.6,53.2
		c-8-7.9-19.1-12.9-32.6-14.3c-3.1-0.3-6.1-0.5-9.2-0.5c-19.3-0.3-38.2,5.6-54,16.8L257,27.4c2.9-11.3-3.9-22.7-15.2-25.6
		c-0.9-0.2-1.9-0.4-2.8-0.5h-0.4c-0.7-0.1-1.4-0.1-2-0.1L191.3,1c-11.7,0.6-21.4,9.2-23.4,20.7l-0.2,1.2c0.2-1.3,0.2-2.6,0.1-3.9
		c-0.4-3.8-2-7.5-4.5-10.4c-5.7-6.9-14.6-7.6-16.2-7.7l-0.6-0.1C142,0.4,137.5,0,132,0C71.2-0.3,0.3,45.1,0,104.1
		c-0.1,28.1,16.8,46.8,45.4,49.8c1.2,0.1,2.4,0.2,3.7,0.3l-21.5,98.7c-1.4,6.2,0.2,12.7,4.1,17.6c3.5,4.4,8.6,7.1,14.2,7.8
		c0.7,0.1,1.4,0.1,2.2,0.1l45.4,0.2c9.9,0,18.8-7.3,23-16.8l2.2-4.1c1.2,6.6,0.9,8.3,4.9,13.3c3.9,5,10,7.9,16.3,7.9l45.4,0.2
		c9.9,0,18.5-6.9,20.7-16.6l0.8-3.4c12.1,13.6,30.5,20.9,53.1,20.9c23,0.1,44.3-7,63.4-21c8.5,11.9,21.7,19.5,37.2,21.1
		c2.2,0.2,4.4,0.4,6.7,0.4c16.5,0.1,32.6-4.9,46.2-14.3c8.2,8.1,18.9,13,31.4,14.3c2.2,0.2,4.4,0.4,6.7,0.4
		c17.8,0.2,35.1-5.7,49.1-16.5c12.4,11,29.7,16.9,50,17c32,0.1,60.5-18.3,78.3-49.9c2.7,4.2,5.7,8.2,8.9,12
		c10.7,12.3,24,21.9,38.9,28.3c15.2,6.6,32.6,10,51.9,10.1c20.6,0.1,39.2-3.1,55.3-9.7c7.2-2.9,14-6.5,20.4-10.8
		c3.8,2.7,7.8,5.1,12,7.2c7,3.5,14.2,6.3,21.7,8.4c7.6,2.2,15.4,3.7,23.2,4.5h0.3c8.1,0.9,16.2,0.9,24.3,0.2
		c13.6-1.1,26.9-4.5,39.3-10.1c4.6-2.1,9-4.6,13.2-7.3c3.2,7.8,10.9,13,19.3,13l134.7,0.8c10.7,0.1,19.8-8,21-18.7l4.2-36.6
		c0.7-5.9-1.2-11.9-5.2-16.3c-3.9-4.5-9.6-7.1-15.6-7.1l-62.5-0.5l0.8-7.2l46.9,0.5c10.8,0.1,19.9-8,21.1-18.7l4-35.5
		c1.3-11.5-6.9-21.9-18.5-23.3c-0.1,0-0.1,0-0.2,0c-0.7-0.1-1.3-0.1-2-0.1l-42.9-0.5l0.7-6.6l67.2,1c10.8,0.2,20-7.9,21.2-18.7
		l4.1-36.4c0-0.3,0.1-0.6,0.1-1C1138.2,40.8,1129.9,30.5,1118.4,29.2z M208.8,150.4L197,204.9L185.4,258l-45.4-0.2l25.8-118.6
		l-46.4-0.2L93.6,257.6l-45.5-0.2L94.8,43C72.2,52.1,57,69.8,52.1,93.9c-0.4,1.9-0.7,3.8-1,5.7c-0.5,4-0.8,8-0.8,12
		c-0.1,4.3,0.3,8.7,1.1,12.9c0.2,1,0.5,1.9,0.7,2.7c1,3.2,2.1,4.7,2.5,6.2c-2.3,0-4.6-0.1-6.7-0.4h-0.5l-1-0.1
		c-0.8-0.1-1.5-0.2-2.2-0.3l-1.2-0.3c-0.6-0.1-1.3-0.3-1.9-0.4l-1.2-0.3c-0.6-0.2-1.2-0.3-1.7-0.5c-0.4-0.1-0.8-0.3-1.1-0.4
		c-0.5-0.2-1.1-0.4-1.6-0.7c-0.3-0.1-0.7-0.3-1-0.5c-0.5-0.3-1-0.5-1.5-0.8c-0.3-0.2-0.6-0.3-0.9-0.5c-0.6-0.4-1.1-0.7-1.6-1.1
		c-0.2-0.1-0.4-0.3-0.5-0.4c-0.7-0.5-1.3-1.1-2-1.8c-0.1-0.2-0.3-0.3-0.4-0.5c-0.5-0.5-0.9-1-1.3-1.5c-0.2-0.2-0.4-0.5-0.5-0.8
		c-0.3-0.5-0.6-0.9-0.9-1.4c-0.2-0.3-0.4-0.6-0.5-1c-0.3-0.5-0.5-1-0.7-1.5c-0.2-0.3-0.3-0.7-0.4-1.1c-0.2-0.5-0.4-1.1-0.6-1.7
		c-0.1-0.4-0.2-0.8-0.3-1.2c-0.2-0.6-0.3-1.2-0.4-1.9c-0.1-0.4-0.2-0.8-0.2-1.2c-0.1-0.7-0.2-1.5-0.3-2.2c0-0.4-0.1-0.7-0.1-1.1
		c-0.1-1.2-0.1-2.3-0.1-3.6C21.2,59.7,79.5,20.8,131.9,21c4.7,0,8.8,0.4,12.9,0.7l-20.6,94l46.4,0.2l20.6-94l45.4,0.2L208.8,150.4z
		 M799.2,239c-0.7,0.6-1.5,1.1-2.2,1.7s-1.3,1-2,1.5c-2.9,2.1-6,3.9-9.1,5.6c-3.2,1.7-6.5,3.3-9.8,4.6c-7.1,2.8-14.5,4.9-22,6.2
		c-4,0.7-8,1.2-12.2,1.5s-8.6,0.5-13,0.5c-2.2,0-4.4-0.1-6.6-0.2c-0.7,0-1.4-0.1-2.1-0.1c-1.4-0.1-2.9-0.2-4.3-0.3l-2-0.2
		c-1.9-0.2-3.8-0.5-5.7-0.8l-1.7-0.3c-2.3-0.4-4.5-0.9-6.8-1.5c-0.4-0.1-0.8-0.2-1.2-0.3c-1.8-0.5-3.6-1-5.4-1.6l-1.7-0.6
		c-2.1-0.7-4.2-1.5-6.1-2.4l0,0c-6.1-2.6-11.9-5.9-17.3-9.8c-5.2-3.7-9.9-8.1-14.1-12.9c-4.2-4.9-7.8-10.2-10.8-15.8
		c-3.1-5.9-5.6-12.1-7.3-18.5c-3.3-12.3-4.6-25-3.9-37.7c-1.6,1.2-3.2,2.3-4.9,3.3c-3.7,61.2-36.4,99.6-76.2,99.4
		c-1.4,0-2.8,0-4.2-0.1c-0.5,0-0.9-0.1-1.4-0.1c-0.9-0.1-1.8-0.1-2.7-0.2c-1.3-0.1-2.5-0.3-3.7-0.5l-1-0.2c-0.9-0.2-1.7-0.3-2.5-0.5
		l-1.3-0.3c-0.7-0.2-1.4-0.4-2.2-0.6c-0.5-0.1-0.9-0.3-1.3-0.4c-0.7-0.2-1.3-0.4-2-0.7c-0.5-0.2-0.9-0.3-1.3-0.5
		c-0.7-0.2-1.3-0.5-1.9-0.8l-1.2-0.6c-0.7-0.3-1.3-0.7-1.9-1l-1-0.6c-0.8-0.5-1.7-1-2.4-1.6l-0.3-0.2c-0.9-0.6-1.8-1.3-2.6-2
		c-0.3-0.2-0.5-0.5-0.8-0.7c-0.6-0.5-1.1-1-1.6-1.5c-0.3-0.3-0.6-0.6-0.9-0.9c-0.5-0.5-0.9-1-1.4-1.5c-0.3-0.3-0.6-0.7-0.9-1.1
		c-0.4-0.5-0.8-1.1-1.2-1.6c-0.3-0.4-0.5-0.8-0.8-1.2c-0.4-0.6-0.7-1.2-1.1-1.8c-0.2-0.4-0.5-0.8-0.7-1.2c-0.4-0.7-0.7-1.4-1-2.2
		c-0.2-0.4-0.4-0.7-0.5-1.1c-0.5-1.1-0.9-2.3-1.3-3.5c-4.7,6.8-10.5,12.8-17.1,17.7c-2.2,1.6-4.6,3-7,4.3c-3.3,1.7-6.7,3.1-10.2,4.2
		c-2.1,0.6-4.2,1.2-6.4,1.5c-2.8,0.5-5.7,0.8-8.6,0.9c-0.9,0-1.7,0-2.5,0c-1.4,0-2.7-0.1-4-0.2l-1.3-0.1l-1.2-0.2
		c-0.5-0.1-1.1-0.2-1.6-0.3l-1.1-0.2c-0.5-0.1-1.1-0.3-1.6-0.4L440,258c-0.5-0.2-1.1-0.4-1.6-0.6c-0.3-0.1-0.6-0.2-0.9-0.3
		c-0.7-0.3-1.3-0.6-2-0.9c-0.1-0.1-0.3-0.1-0.4-0.2c-0.8-0.4-1.5-0.8-2.3-1.3c-0.2-0.1-0.4-0.3-0.6-0.5c-0.5-0.4-1-0.7-1.5-1.1
		c-0.3-0.2-0.5-0.4-0.8-0.7c-0.4-0.4-0.8-0.7-1.2-1.1s-0.5-0.5-0.8-0.8s-0.7-0.8-1.1-1.2s-0.5-0.6-0.7-0.9s-0.6-0.8-1-1.3
		s-0.5-0.7-0.7-1s-0.6-0.9-0.9-1.4s-0.4-0.7-0.6-1.1s-0.5-1-0.8-1.6c-0.2-0.4-0.4-0.8-0.5-1.1c-0.2-0.6-0.5-1.2-0.7-1.8
		c-0.1-0.4-0.3-0.8-0.4-1.2c-0.2-0.7-0.4-1.4-0.6-2.1c-0.1-0.4-0.2-0.7-0.3-1.1c-0.2-1.1-0.5-2.2-0.7-3.4
		c-4.7,6.7-10.4,12.5-17,17.3c-2.2,1.6-4.5,3-6.9,4.2c-6.1,3.2-12.6,5.2-19.4,6.1c-1,0.1-1.9,0.2-2.8,0.3c-1.9,0.1-3.6,0.2-5.2,0.2
		c-1.4,0-2.8-0.1-4.1-0.2c-0.6-0.1-1.2-0.1-1.8-0.2c-0.4-0.1-0.9-0.1-1.3-0.2c-0.7-0.1-1.3-0.3-2-0.4c-0.4-0.1-0.8-0.2-1.2-0.3
		c-0.7-0.2-1.4-0.4-2.1-0.7c-0.3-0.1-0.6-0.2-0.9-0.3c-1-0.4-1.9-0.8-2.8-1.2l-0.5-0.3c-0.7-0.4-1.5-0.8-2.2-1.2
		c-0.3-0.2-0.6-0.4-0.9-0.6c-0.5-0.4-1.1-0.7-1.6-1.1c-0.3-0.3-0.6-0.5-0.9-0.8c-0.5-0.4-0.9-0.8-1.4-1.2s-0.6-0.6-0.9-1
		s-0.8-0.9-1.2-1.4s-0.6-0.7-0.8-1.1s-0.7-1-1-1.5s-0.5-0.8-0.8-1.2s-0.6-1.1-0.9-1.7s-0.4-0.9-0.6-1.4s-0.5-1.2-0.8-1.9
		c-0.2-0.5-0.4-1-0.5-1.5c-0.2-0.7-0.4-1.4-0.6-2.1c-0.1-0.5-0.3-1-0.4-1.6c-0.2-0.8-0.3-1.6-0.5-2.4c-0.1-0.5-0.2-1-0.3-1.6
		c-0.1-0.9-0.2-1.9-0.3-2.9c0-0.5-0.1-0.9-0.1-1.4c-0.1-1.5-0.1-3-0.1-4.6c0-0.5,0-1.1,0.1-1.7c-1.1,1.3-2.2,2.7-3.3,4
		c-3.4,4-7.1,7.7-10.9,11.3c-1.3,1.2-2.6,2.3-4,3.4c-6.8,5.7-14.3,10.3-22.4,13.9c-3.3,1.4-6.8,2.7-10.2,3.6c-3.6,1-7.3,1.8-11,2.3
		c-3.9,0.5-7.9,0.8-11.9,0.8c-1.7,0-3.3-0.1-4.9-0.2c-0.5,0-1-0.1-1.4-0.1c-1.1-0.1-2.1-0.2-3.2-0.3c-0.7-0.1-1.4-0.2-2.1-0.3
		c-0.9-0.1-1.8-0.3-2.7-0.5c-0.7-0.1-1.3-0.3-2-0.4c-0.9-0.2-1.8-0.5-2.6-0.7c-0.6-0.2-1.2-0.4-1.8-0.6c-0.9-0.3-1.7-0.6-2.6-1
		c-0.5-0.2-1-0.4-1.6-0.6c-1-0.4-1.9-0.9-2.8-1.4c-0.4-0.2-0.7-0.4-1.1-0.6c-1.2-0.7-2.4-1.5-3.5-2.3c-0.3-0.2-0.6-0.4-0.8-0.7
		c-0.8-0.6-1.6-1.3-2.4-2c-0.4-0.4-0.7-0.8-1.1-1.1c-0.6-0.6-1.2-1.3-1.8-1.9c-0.4-0.4-0.7-0.9-1.1-1.4c-0.5-0.7-1-1.4-1.5-2.1
		c-0.3-0.5-0.7-1.1-1-1.6c-0.4-0.7-0.9-1.5-1.2-2.3c-0.3-0.6-0.6-1.2-0.9-1.8c-0.4-0.8-0.7-1.6-1-2.5c-0.2-0.6-0.5-1.3-0.7-2
		c-0.3-0.9-0.6-1.8-0.8-2.8c-0.2-0.7-0.4-1.4-0.5-2.1c-0.2-1-0.4-2.1-0.6-3.2c-0.1-0.7-0.3-1.4-0.4-2.1c-0.2-1.2-0.3-2.5-0.4-3.8
		c0-0.6-0.1-1.3-0.2-1.9c-0.1-2-0.2-4-0.2-6.2c0-0.6,0-1.3,0-1.9c0.1-4.4,0.4-8.8,1-13.2c0.4-2.7,0.8-5.6,1.4-8.5
		c1.9-10.4,4.9-20.5,8.9-30.3c1.5-3.6,3.1-7.2,4.9-10.7c1.5-3,3.2-5.9,5-8.7s3.7-5.6,5.8-8.2c2.1-2.6,4.2-5.1,6.6-7.5
		c2.3-2.4,4.8-4.6,7.4-6.7c9.6-7.6,21-12.5,33.1-14.2c3.9-0.6,7.7-0.8,11.6-0.8c1.6,0,3,0.1,4.5,0.2l1.2,0.1
		c0.9,0.1,1.9,0.2,2.7,0.3c0.6,0.1,1.2,0.2,1.8,0.3c0.8,0.1,1.5,0.3,2.3,0.4c0.5,0.1,1.1,0.2,1.6,0.4c0.7,0.2,1.4,0.4,2.1,0.6
		c0.4,0.2,0.9,0.3,1.3,0.4c0.7,0.3,1.4,0.6,2.1,0.9c0.3,0.2,0.7,0.3,1,0.4c0.9,0.5,1.8,1,2.7,1.5l0.3,0.2c0.7,0.5,1.4,1,2,1.5
		c0.3,0.2,0.5,0.5,0.7,0.7c0.5,0.4,0.9,0.8,1.3,1.2s0.5,0.6,0.7,0.8s0.7,0.8,1,1.2s0.4,0.6,0.6,1s0.6,0.8,0.8,1.3s0.4,0.7,0.5,1
		s0.4,0.9,0.6,1.4s0.3,0.7,0.4,1.1s0.3,1,0.5,1.4s0.2,0.7,0.3,1.1s0.3,1,0.4,1.5c0.1,0.4,0.2,0.7,0.2,1.1c0.1,0.6,0.2,1.1,0.3,1.7
		c0,0.4,0.1,0.7,0.1,1.1c0.1,0.6,0.1,1.2,0.1,1.9c0,0.3,0.1,0.6,0.1,0.9c0,0.9,0.1,1.9,0.1,2.8c0,7.6-1.7,15.1-4.8,22
		c-0.9,2-1.8,3.9-2.9,5.7c-3.3,5.6-7.4,10.7-12.2,15.2c-3.3,3.1-6.8,5.8-10.5,8.2c-1.9,1.2-3.8,2.4-5.8,3.5s-4.1,2.1-6.2,3
		c-4.2,1.9-8.6,3.4-13.1,4.6c-5.7,1.5-11.5,2.4-17.4,2.7c-0.3,4.4-0.7,8.8-0.7,12.6c0,1.3,0,2.5,0.1,3.6c0,0.4,0,0.7,0.1,1.1
		c0,0.8,0.1,1.5,0.2,2.2c0,0.4,0.1,0.8,0.1,1.2c0.1,0.6,0.1,1.2,0.2,1.8c0.1,0.4,0.1,0.7,0.2,1.1c0.1,0.6,0.2,1.1,0.4,1.6
		c0.1,0.3,0.2,0.7,0.3,1c0.1,0.5,0.3,1,0.5,1.4c0.1,0.3,0.2,0.6,0.3,0.9c0.2,0.5,0.4,0.9,0.6,1.4c0.1,0.2,0.2,0.5,0.3,0.7
		c0.3,0.5,0.6,1,0.9,1.5c0.1,0.1,0.1,0.2,0.2,0.3c0.4,0.5,0.8,1.1,1.3,1.5c0.1,0.1,0.2,0.2,0.4,0.3c0.3,0.4,0.7,0.7,1,1
		c0.2,0.1,0.4,0.3,0.6,0.4s0.7,0.5,1,0.7l0.7,0.4c0.4,0.2,0.7,0.4,1.1,0.5s0.5,0.2,0.7,0.3s0.8,0.3,1.2,0.4l0.8,0.2
		c0.4,0.1,0.9,0.2,1.3,0.3l0.8,0.2l0,0c0.5,0.1,1.1,0.2,1.6,0.2c0.2,0,0.4,0.1,0.6,0.1h0.1h0.2c1.5,0.1,3.2,0.2,4.9,0.2
		c9.8,0.2,19.4-2.2,28-7c2.3-1.3,4.5-2.7,6.7-4.3s4.3-3.2,6.3-5c3.1-2.7,6.1-5.6,9-8.8c2-2.1,4-4.3,5.9-6.5l0,0l34.5-158l46.7-6.1
		l-37,170.2c-0.4,1.8-0.8,3.7-1,5.5c-0.2,1.5-0.3,3-0.3,4.6c0,1,0.1,1.9,0.2,2.9c0,0.3,0.1,0.5,0.1,0.8c0.1,0.5,0.2,1.1,0.4,1.6
		c0.2,0.7,0.5,1.4,0.9,2c0.1,0.2,0.3,0.5,0.5,0.7c0.2,0.3,0.5,0.6,0.8,0.9c0.2,0.2,0.4,0.4,0.6,0.5c0.3,0.3,0.7,0.5,1.1,0.7
		c0.2,0.1,0.4,0.3,0.7,0.4c0.5,0.2,1,0.4,1.5,0.5c0.2,0.1,0.4,0.1,0.6,0.2c0.8,0.2,1.6,0.3,2.4,0.4l0,0c0.9,0.1,1.9,0.1,3,0.1h0.2
		c1.5,0,3.1-0.2,4.6-0.5c1.5-0.4,3-0.9,4.4-1.6c1.5-0.7,2.9-1.5,4.2-2.5c2.1-1.5,4-3.3,5.7-5.3c1.8-2.1,3.5-4.4,4.9-6.8
		c1-1.7,1.9-3.5,2.7-5.3c0.8-1.9,1.5-3.8,2.1-5.7l0,0l34.5-158l46.7-6.1L465.2,207c-0.8,3.3-1.3,6.7-1.3,10.1c0,1,0.1,1.9,0.2,2.9
		c0,0.3,0.1,0.5,0.1,0.8c0.1,0.5,0.2,1.1,0.4,1.6c0.1,0.3,0.2,0.5,0.3,0.8c0.2,0.4,0.4,0.8,0.6,1.2c0.1,0.2,0.3,0.5,0.5,0.7
		c0.2,0.3,0.5,0.6,0.8,0.9c0.2,0.2,0.4,0.4,0.6,0.5c0.3,0.3,0.7,0.5,1.1,0.7l0.4,0.2l0,0l0.3,0.2c0.5,0.2,1,0.4,1.5,0.5
		c0.2,0.1,0.4,0.1,0.6,0.2c0.8,0.2,1.6,0.3,2.4,0.4l0,0c0.9,0.1,1.9,0.1,3,0.1h0.1c1.2,0,2.4-0.1,3.5-0.3c8.1-1.5,15.5-8,20.6-17
		c0-0.6-0.1-1.2-0.1-1.8c0.2-36.3,22-111.3,87-111c1.9,0,3.6,0.1,5.4,0.3c0.7,0.1,1.4,0.2,2.2,0.3s1.1,0.2,1.7,0.2
		c0.8,0.1,1.5,0.3,2.3,0.5c0.5,0.1,1,0.2,1.5,0.3c0.8,0.2,1.5,0.5,2.3,0.7c0.4,0.1,0.8,0.2,1.3,0.4c1,0.4,1.9,0.8,2.8,1.2
		c0.2,0.1,0.3,0.1,0.5,0.2c1,0.5,2,1.1,3,1.7c0.3,0.2,0.7,0.5,1,0.7c0.6,0.4,1.2,0.8,1.8,1.3c0.4,0.3,0.7,0.6,1,0.9
		c0.5,0.4,1,0.9,1.5,1.4s0.7,0.7,1,1.1s0.9,1,1.3,1.5s0.6,0.8,0.9,1.3s0.8,1.1,1.1,1.7s0.6,0.9,0.8,1.4s0.7,1.2,1,1.8s0.5,1,0.7,1.5
		s0.6,1.3,0.8,2s0.4,1.1,0.6,1.6c0.2,0.7,0.5,1.5,0.7,2.2c0.2,0.6,0.3,1.1,0.5,1.7c0.2,0.8,0.4,1.7,0.6,2.5c0.1,0.6,0.3,1.1,0.4,1.7
		c0.2,1,0.3,2,0.5,3c0.1,0.5,0.2,1,0.2,1.5c0.2,1.6,0.4,3.1,0.5,4.8c2.5-0.7,4.8-1.9,6.9-3.5c1-5,2.4-10,4-14.9
		c0.8-2.4,1.7-4.8,2.7-7.1s2-4.6,3.1-6.9c1.6-3.3,3.4-6.5,5.3-9.6c5.6-9.1,12.4-17.4,20.3-24.6c10.7-9.7,23.2-17.2,36.8-22.1
		c14.5-5.2,29.8-7.7,45.2-7.3c2,0,4,0.1,6,0.2c0.6,0,1.2,0.1,1.8,0.2c1.3,0.1,2.7,0.2,3.9,0.3s2.5,0.3,3.8,0.5
		c0.6,0.1,1.3,0.2,1.9,0.3c1.9,0.3,3.7,0.6,5.5,1c6.8,1.4,13.4,3.5,19.7,6.2c5.8,2.5,11.3,5.6,16.5,9.3c3.2,2.3,6.2,4.8,9,7.5
		c1.4,1.3,2.7,2.7,3.9,4l-14,16.1l-5.2,6c-1.3,1.4-2.7,2.6-4.2,3.7c-0.9,0.6-1.8,1-2.8,1.2c-1.2,0.3-2.4,0.4-3.6,0.4
		c-0.7,0-1.4-0.1-2.1-0.3c-0.2,0-0.5-0.1-0.7-0.1c-0.8-0.2-1.5-0.5-2.2-0.8c-1.7-0.9-3.3-1.9-4.8-2.9l-2.7-1.8l-2.9-1.9
		c-1.1-0.7-2.2-1.3-3.3-1.9c-1.2-0.6-2.5-1.2-4-1.8c-3.2-1.3-6.6-2.3-10-3c-0.9-0.2-1.9-0.4-2.9-0.5l-1-0.1
		c-0.6-0.1-1.2-0.2-1.8-0.2H755c-0.8-0.1-1.7-0.2-2.5-0.2l-1.2-0.1c-1.3-0.1-2.6-0.1-4-0.1c-8-0.2-16,1.2-23.5,4.2
		c-1.8,0.7-3.6,1.5-5.3,2.4c-3.4,1.8-6.7,4-9.6,6.5c-1.5,1.3-3,2.6-4.3,4c-5.9,6.1-10.5,13.3-13.7,21.2c-3.7,9.2-6,18.9-6.8,28.7
		c-1,10.9-0.3,20.5,2,29c2,7.8,5.5,15,10.5,21.3c4.6,5.7,10.5,10.2,17.1,13.2c1.5,0.7,3,1.3,4.6,1.8l1.4,0.4c1.2,0.4,2.4,0.7,3.6,1
		l1.4,0.3c1.6,0.3,3.3,0.6,5,0.8h0.1c1.9,0.2,3.9,0.3,5.9,0.3c4.2,0.1,8.4-0.1,12.6-0.6c3.6-0.4,7.2-1.1,10.7-2.1
		c3.3-1,6.5-2.3,9.6-4c3.3-1.8,6.4-4,9.4-6.3c1.3-0.9,2.6-1.7,4.1-2.3c0.7-0.3,1.4-0.5,2.2-0.7c0.7-0.1,1.5-0.2,2.2-0.2l0,0
		c0.4,0,0.8,0.1,1.2,0.1c0.8,0.1,1.5,0.3,2.3,0.6c1.2,0.5,2.3,1.3,3.2,2.2l12.4,14.2l5.4,6.2C807.4,231.9,803.4,235.6,799.2,239z
		 M955.1,212.4c-2.1,5.3-4.9,10.4-8.3,15.1c-2,2.9-4.2,5.6-6.6,8.2c-6.8,7.1-15,12.8-23.9,16.8c-2.4,1.1-4.8,2.1-7.3,3
		c-8,2.8-16.4,4.6-24.9,5.3c-6.7,0.6-13.5,0.5-20.2-0.2c-1-0.1-2-0.3-3.1-0.4c-0.7-0.1-1.4-0.2-2.1-0.3c-1-0.1-2-0.3-3.1-0.5
		c-0.6-0.1-1.3-0.2-1.9-0.3c-1.2-0.2-2.3-0.5-3.5-0.8l-1.4-0.3c-1.6-0.4-3.2-0.8-4.8-1.3c-3.2-0.9-6.3-2-9.4-3.2
		c-1.5-0.6-3-1.2-4.5-1.9c-1.5-0.6-2.9-1.3-4.3-2s-2.8-1.4-4.1-2.2c-2.1-1.2-4.2-2.6-6.2-4.1c-1.6-1.2-3.1-2.4-4.5-3.6l11.9-19.4
		l2.9-4.7c0.6-0.9,1.3-1.7,2-2.4c0.8-0.8,1.7-1.5,2.6-2.1c0.9-0.6,1.9-1.1,3-1.5s2.1-0.6,3.3-0.7c0.8-0.1,1.7-0.1,2.5,0
		c0.2,0,0.5,0.1,0.7,0.1c0.7,0.1,1.4,0.3,2.1,0.4c0.3,0.1,0.5,0.1,0.8,0.2c0.9,0.3,1.9,0.7,2.7,1.1c3,1.6,6.3,3.3,10.1,5.2
		c3,1.5,6.2,2.8,9.4,3.8c1.1,0.4,2.3,0.7,3.5,1.1s2.3,0.6,3.5,0.8l1.2,0.2c0.5,0.1,1.1,0.2,1.6,0.2c0.2,0,0.5,0,0.7,0
		c1.1,0.1,2.2,0.1,3.3,0.2c0.5,0,1,0.1,1.6,0c1.7,0,3.5-0.1,5.3-0.2c4.1-0.3,8.1-1.1,11.9-2.5c3.3-1.1,6.3-2.9,9-5.1
		c1.9-1.6,3.4-3.5,4.6-5.7c1.6-3.2,2.6-6.7,2.8-10.2c0.1-1,0.1-2,0.1-3.1c0.1-3.2-0.6-6.4-2.2-9.3c-0.5-0.8-1.1-1.6-1.8-2.3
		s-1.4-1.4-2.2-2c-2.6-2-5.4-3.6-8.5-4.7c-1.1-0.4-2.2-0.8-3.4-1.2c-3.8-1.2-7.7-2.1-11.7-2.9c-2.8-0.5-5.7-1.1-8.6-1.7
		s-5.8-1.2-8.8-1.9c-5.9-1.4-11.8-3.2-17.4-5.5c-2.8-1.1-5.5-2.5-8.1-4.1c-1.3-0.8-2.5-1.7-3.7-2.6c-1.2-0.9-2.3-1.9-3.5-2.9
		c-2.3-2.1-4.3-4.5-6-7.1c-1.9-2.8-3.5-5.8-4.8-8.9c-1.4-3.5-2.5-7.2-3.1-11c-0.7-4.5-1-9-1-13.6c0-5.6,0.9-11.2,2.5-16.6
		c0.7-2.4,1.5-4.8,2.5-7.1c3-7.2,7.3-13.7,12.5-19.4c0.6-0.7,1.2-1.4,1.9-2.1c6.7-6.7,14.6-12.2,23.3-16.1
		c9.9-4.5,20.6-7.1,31.4-7.8c6.4-0.5,12.8-0.5,19.2,0c1,0.1,1.9,0.2,2.9,0.3c2.3,0.3,4.6,0.6,6.9,1l1,0.2c2.3,0.5,4.6,1,6.9,1.6
		c5.4,1.5,10.5,3.5,15.5,5.9c4.6,2.3,8.9,5.1,12.8,8.4l-12.4,24c-1.2,2.1-2.8,4-4.7,5.6c-1.8,1.4-4,2.1-6.2,2.2
		c-0.7,0.1-1.3,0.1-2,0c-0.2,0-0.4,0-0.6-0.1c-0.6-0.1-1.1-0.2-1.7-0.3l-0.7-0.2c-0.8-0.2-1.6-0.5-2.3-0.9c-2.6-1.2-5.5-2.5-8.8-4
		c-3.6-1.6-7.3-2.9-11.2-3.8c-1.5-0.4-3-0.6-4.5-0.8c-0.2,0-0.4-0.1-0.5-0.1s-0.5,0-0.7,0c-0.9-0.1-1.9-0.1-2.9-0.2
		c-0.4,0-0.9,0-1.3,0c-1.4,0-2.9,0-4.4,0.2c-9.3,0.8-16.3,3.3-20.8,7.6c-4.6,4.3-7.1,10.3-6.9,16.5c-0.2,3.8,1.3,7.6,4.1,10.3
		c3.1,2.8,6.8,5,10.8,6.4c5,1.8,10,3.3,15.2,4.3c5.7,1.2,11.5,2.6,17.4,4.2c5.9,1.6,11.7,3.5,17.4,5.8c2.8,1.1,5.5,2.5,8,4.1
		s4.8,3.3,7,5.3c3.2,3,6,6.4,8.2,10.2c0.9,1.5,1.7,3,2.4,4.6c2.7,5.9,3.9,13.3,3.8,22c0,4.7-0.5,9.4-1.3,14
		C958.1,203.6,956.8,208.1,955.1,212.4L955.1,212.4z M1111.9,87.4l-86.3-1.3l-5.3,48.7l66,0.8l-4,35.5l-65.9-0.7l-5.4,49.3l85.8,0.6
		l-4.1,36.6L958,256.1l2.5-23.6l8.2-77l11.5-107.8l136,2.3L1111.9,87.4z"/>
</g>
<path class="st1" d="M592.5,145.5c1.4-5.4,4.8-9,9.1-10.6c-0.1-1.5-0.2-2.8-0.4-4.1c0-0.4-0.1-0.8-0.2-1.1c-0.1-0.8-0.3-1.6-0.5-2.3
	c-0.1-0.4-0.2-0.8-0.3-1.1c-0.2-0.6-0.4-1.2-0.6-1.7c-0.2-0.3-0.3-0.7-0.5-1c-0.2-0.4-0.4-0.9-0.7-1.3c-0.2-0.3-0.4-0.5-0.6-0.8
	c-0.3-0.3-0.6-0.6-0.9-0.9c-0.2-0.2-0.5-0.4-0.8-0.6s-0.7-0.5-1.1-0.6c-0.3-0.2-0.6-0.3-0.9-0.4c-0.4-0.2-0.8-0.3-1.3-0.4
	c-0.3-0.1-0.7-0.2-1-0.2c-0.2,0-0.3-0.1-0.5-0.1c-0.6-0.1-1.2-0.1-1.8-0.1c-22.4-0.1-42.2,56-42.4,86.9c0,1.2,0,2.4,0,3.5
	c0,0.4,0,0.7,0,1.1c0,0.7,0,1.5,0.1,2.2c0,0.4,0,0.8,0.1,1.1c0,0.6,0.1,1.2,0.1,1.8c0,0.4,0.1,0.7,0.1,1.1c0.1,0.5,0.1,1,0.2,1.5
	s0.1,0.7,0.2,1s0.2,0.9,0.3,1.3s0.1,0.6,0.2,0.9s0.2,0.8,0.3,1.2s0.2,0.5,0.3,0.8s0.3,0.7,0.4,1.1s0.2,0.4,0.3,0.6s0.4,0.7,0.6,1
	c0.1,0.1,0.2,0.3,0.3,0.5c0.3,0.4,0.6,0.9,1,1.2l0.1,0.1c0.3,0.4,0.6,0.7,1,1l0.4,0.3c0.3,0.2,0.5,0.4,0.8,0.5
	c0.2,0.1,0.4,0.2,0.5,0.3s0.5,0.3,0.8,0.4l0.6,0.2c0.3,0.1,0.6,0.2,0.9,0.3l0.7,0.2l1,0.2l0.8,0.1h0.4h0.4c1,0.1,1.9,0.1,3,0.1l0,0
	c5.8,0,11.7-3.9,17.1-10.7c9-11.3,16.5-30.8,19.8-53.9c-5.7-1.6-8.5-6.4-8.5-14.6c0-1.1,0.1-2.1,0.2-3.2
	C592.1,147.4,592.3,146.4,592.5,145.5z"/>
<polygon class="st0" points="468.2,227.8 468.2,227.8 468.2,227.8 "/>
</svg>
